<svg xmlns="http://www.w3.org/2000/svg" viewBox="0 0 830 322" font-family="'Courier New',Courier,monospace">
  <defs>
    <pattern id="dg" width="12" height="12" patternUnits="userSpaceOnUse">
      <circle cx="2" cy="2" r="1.2" fill="#a7abc0" opacity="0.7"/>
    </pattern>
  </defs>
  <style>
    .t  { fill:#a7abc0; }
    .tt { fill:#e2e5ef; }
    .dim{ fill:#6d7284; }
    .d  { font-family:Arial,Helvetica,sans-serif; font-weight:700; fill:#e2e5ef; letter-spacing:2px; }
    .ln { stroke:#9ba0b4; fill:none; }
    .lnd{ stroke:#565b6e; fill:none; }
  </style>

  <rect x="0" y="0" width="830" height="322" fill="#1f212b"/>

  <!-- ============ ROW 1 ============ -->
  <!-- 01 IDENTITY -->
  <g>
    <rect x="8" y="8" width="188" height="90" fill="#242735" stroke="#3a3e4e"/>
    <circle cx="48" cy="53" r="22" class="ln"/>
    <ellipse cx="48" cy="53" rx="9" ry="22" class="ln"/>
    <line x1="26" y1="53" x2="70" y2="53" class="ln"/>
    <line x1="48" y1="31" x2="48" y2="75" class="lnd"/>
    <circle cx="48" cy="53" r="1.8" class="tt"/>
    <text x="82" y="46" class="d" font-size="15">NATHAN</text>
    <text x="82" y="62" class="d" font-size="15">CURTIS</text>
    <text x="82" y="76" class="t" font-size="6" letter-spacing="1">IDENTITY :: VERIFIED</text>
    <text x="82" y="87" class="dim" font-size="5.5">ID-0864 // AI-OPS</text>
    <text x="190" y="19" text-anchor="end" class="dim" font-size="5">01</text>
  </g>

  <!-- 02 ARCHIVE_LOG / transmission -->
  <g>
    <rect x="202" y="8" width="296" height="90" fill="#262a3a" stroke="#3a3e4e"/>
    <text x="212" y="24" class="tt" font-size="8" letter-spacing="2">ARCHIVE_LOG</text>
    <text x="490" y="24" text-anchor="end" class="dim" font-size="5.5">// TRANSMISSION</text>
    <line x1="212" y1="30" x2="490" y2="30" class="lnd"/>
    <text x="212" y="46" class="tt" font-size="7" letter-spacing="1">BUILDING AND INTEGRATING AI
      <animate attributeName="opacity" values="1;1;0;0" keyTimes="0;0.18;0.23;1" dur="12.5s" repeatCount="indefinite"/>
    </text>
    <text x="212" y="46" class="tt" font-size="7" letter-spacing="1" opacity="0">INTO ENTERPRISE SYSTEMS
      <animate attributeName="opacity" values="0;0;1;1;0;0" keyTimes="0;0.18;0.23;0.38;0.43;1" dur="12.5s" repeatCount="indefinite"/>
    </text>
    <text x="212" y="46" class="tt" font-size="7" letter-spacing="1" opacity="0">TRAINING LLMS AT SCALE
      <animate attributeName="opacity" values="0;0;1;1;0;0" keyTimes="0;0.38;0.43;0.58;0.63;1" dur="12.5s" repeatCount="indefinite"/>
    </text>
    <text x="212" y="46" class="tt" font-size="7" letter-spacing="1" opacity="0">MULTI-AGENT SYSTEMS // GRAPH CORE
      <animate attributeName="opacity" values="0;0;1;1;0;0" keyTimes="0;0.58;0.63;0.78;0.83;1" dur="12.5s" repeatCount="indefinite"/>
    </text>
    <text x="212" y="46" class="tt" font-size="7" letter-spacing="1" opacity="0">CIVIL AFFAIRS TEAM SERGEANT — US ARMY
      <animate attributeName="opacity" values="0;0;1;1;0;0" keyTimes="0;0.78;0.83;0.98;0.99;1" dur="12.5s" repeatCount="indefinite"/>
    </text>
    <rect x="212" y="50" width="4" height="7" class="tt">
      <animate attributeName="opacity" values="1;1;0;0" keyTimes="0;0.5;0.5;1" dur="1.2s" repeatCount="indefinite"/>
    </rect>
    <text x="212" y="72" class="dim" font-size="5.5">FREQ :: 0864 MHZ // DECODED</text>
    <text x="212" y="82" class="dim" font-size="5.5">PWR :: 09:44:07 // NOMINAL</text>
    <text x="490" y="19" text-anchor="end" class="dim" font-size="5">02</text>
  </g>

  <!-- 03 STATUS -->
  <g>
    <rect x="504" y="8" width="150" height="90" fill="#242735" stroke="#3a3e4e"/>
    <rect x="512" y="16" width="42" height="13" fill="#a7abc0" opacity="0.15"/>
    <text x="516" y="25" class="tt" font-size="7" letter-spacing="1">ACTIVE</text>
    <circle cx="638" cy="22" r="3" class="tt">
      <animate attributeName="opacity" values="1;0.2;1" dur="2s" repeatCount="indefinite"/>
    </circle>
    <text x="512" y="46" class="t" font-size="6" letter-spacing="1">MODE :: ENTERPRISE-AI</text>
    <text x="512" y="58" class="t" font-size="6" letter-spacing="1">SYNC :: 09:44:07 UTC</text>
    <text x="512" y="70" class="t" font-size="6" letter-spacing="1">UPTIME :: CONTINUOUS</text>
    <text x="512" y="88" class="dim" font-size="5.5">LOG :: 472 — RESET</text>
    <text x="648" y="19" text-anchor="end" class="dim" font-size="5">03</text>
  </g>

  <!-- 04 MEASURE / katakana -->
  <g>
    <rect x="660" y="8" width="162" height="90" fill="#242735" stroke="#3a3e4e"/>
    <text x="676" y="52" class="dim" font-size="26">計測</text>
    <rect x="726" y="20" width="88" height="42" fill="url(#dg)" opacity="0.8"/>
    <text x="726" y="76" class="tt" font-size="10" letter-spacing="2">0864</text>
    <text x="676" y="88" class="dim" font-size="5.5">MEASURE // SYS-09</text>
    <text x="816" y="19" text-anchor="end" class="dim" font-size="5">04</text>
  </g>

  <!-- ============ ROW 2 ============ -->
  <!-- 05 CURRENT_OPS -->
  <g>
    <rect x="8" y="104" width="262" height="90" fill="#242735" stroke="#3a3e4e"/>
    <text x="16" y="120" class="tt" font-size="8" letter-spacing="2">CURRENT_OPS</text>
    <text x="262" y="120" text-anchor="end" class="dim" font-size="5.5">MODULE // DOE</text>
    <line x1="16" y1="126" x2="262" y2="126" class="lnd"/>
    <text x="16" y="141" class="t" font-size="6">AI RAG APPLICATION</text>
    <rect x="16" y="144" width="150" height="4" class="lnd"/>
    <rect x="16" y="144" width="117" height="4" fill="#a7abc0" opacity="0.5"/>
    <text x="254" y="148" text-anchor="end" class="dim" font-size="5">78%</text>
    <text x="16" y="158" class="t" font-size="6">CUSTOM DATA PIPELINES</text>
    <rect x="16" y="161" width="150" height="4" class="lnd"/>
    <rect x="16" y="161" width="96" height="4" fill="#a7abc0" opacity="0.5"/>
    <text x="254" y="165" text-anchor="end" class="dim" font-size="5">64%</text>
    <text x="16" y="175" class="t" font-size="6">LLM RESEARCH</text>
    <rect x="16" y="178" width="150" height="4" class="lnd"/>
    <rect x="16" y="178" width="78" height="4" fill="#a7abc0" opacity="0.5"/>
    <text x="254" y="182" text-anchor="end" class="dim" font-size="5">52%</text>
    <text x="16" y="192" class="t" font-size="6">ENTERPRISE INTEGRATION</text>
    <rect x="16" y="195" width="150" height="4" class="lnd"/>
    <rect x="16" y="195" width="61" height="4" fill="#a7abc0" opacity="0.5"/>
    <text x="254" y="199" text-anchor="end" class="dim" font-size="5">41%</text>
    <text x="262" y="115" text-anchor="end" class="dim" font-size="5">05</text>
  </g>

  <!-- 06 SERVICE 2008 -->
  <g>
    <rect x="276" y="104" width="142" height="90" fill="#242735" stroke="#3a3e4e"/>
    <text x="286" y="148" class="d" font-size="30">2008</text>
    <text x="286" y="162" class="tt" font-size="5.5" letter-spacing="1">SERVICE_COMMENCED</text>
    <text x="286" y="174" class="t" font-size="5.5">U.S. ARMY // CIVIL AFFAIRS</text>
    <text x="286" y="186" class="dim" font-size="5.5">PACIFIC THEATER</text>
    <g class="ln" transform="translate(398,128)">
      <line x1="-7" y1="0" x2="7" y2="0"/>
      <line x1="0" y1="-7" x2="0" y2="7" transform="rotate(30)"/>
      <line x1="0" y1="-7" x2="0" y2="7" transform="rotate(60)"/>
      <line x1="-5" y1="-5" x2="5" y2="5" transform="rotate(15)"/>
    </g>
    <text x="412" y="115" text-anchor="end" class="dim" font-size="5">06</text>
  </g>

  <!-- 07 CALIBRATED dial -->
  <g>
    <rect x="424" y="104" width="186" height="90" fill="#242735" stroke="#3a3e4e"/>
    <circle cx="470" cy="149" r="31" class="lnd" stroke-dasharray="1 11.17"/>
    <circle cx="470" cy="149" r="26" class="ln"/>
    <circle cx="470" cy="149" r="2" class="tt"/>
    <g>
      <line x1="470" y1="149" x2="470" y2="127" class="tt"/>
      <animateTransform attributeName="transform" type="rotate" from="0 470 149" to="360 470 149" dur="9s" repeatCount="indefinite"/>
    </g>
    <text x="508" y="138" class="tt" font-size="7" letter-spacing="1">CALIBRATED</text>
    <text x="508" y="150" class="t" font-size="5.5">SIGNAL-LOCK :: 98.4%</text>
    <text x="508" y="158" class="dim" font-size="5.5">SECTOR :: ACTIVE</text>
    <text x="508" y="170" class="dim" font-size="5">VECTOR 0-90 // 789-5450 HGZ</text>
    <text x="604" y="115" text-anchor="end" class="dim" font-size="5">07</text>
  </g>

  <!-- 08 LEARNING_QUEUE -->
  <g>
    <rect x="616" y="104" width="206" height="90" fill="#242735" stroke="#3a3e4e"/>
    <text x="624" y="120" class="tt" font-size="8" letter-spacing="2">LEARNING_QUEUE</text>
    <text x="814" y="120" text-anchor="end" class="dim" font-size="5">08</text>
    <line x1="624" y1="126" x2="814" y2="126" class="lnd"/>
    <rect x="624" y="133" width="5" height="5" class="ln"/>
    <line x1="624" y1="138" x2="629" y2="133" class="tt"/>
    <text x="634" y="138" class="t" font-size="6.5">GRAPH ENGINEERING</text>
    <rect x="624" y="146" width="5" height="5" class="ln"/>
    <line x1="624" y1="151" x2="629" y2="146" class="ln"/>
    <text x="634" y="151" class="t" font-size="6.5">LLM ARCHITECTURE</text>
    <rect x="624" y="159" width="5" height="5" class="lnd"/>
    <text x="634" y="164" class="t" font-size="6.5">MODEL TRAINING</text>
    <rect x="624" y="172" width="5" height="5" class="lnd"/>
    <text x="634" y="177" class="t" font-size="6.5">ENTERPRISE INTEGRATION</text>
    <text x="800" y="188" text-anchor="end" class="dim" font-size="10">訓練</text>
  </g>

  <!-- ============ ROW 3 ============ -->
  <!-- 09 EPOCH -->
  <g>
    <rect x="8" y="200" width="150" height="90" fill="#242735" stroke="#3a3e4e"/>
    <text x="16" y="236" class="d" font-size="18">EPOCH</text>
    <rect x="16" y="246" width="60" height="28" fill="url(#dg)"/>
    <text x="16" y="284" class="dim" font-size="5.5">T+0864 :: SYNC-ACTIVE</text>
    <circle cx="138" cy="220" r="8" class="ln"/>
    <circle cx="138" cy="220" r="2" class="tt"/>
    <text x="152" y="211" text-anchor="end" class="dim" font-size="5">09</text>
  </g>

  <!-- 10 DIGITAL / katakana -->
  <g>
    <rect x="164" y="200" width="120" height="90" fill="#262a3a" stroke="#3a3e4e"/>
    <text x="180" y="232" class="dim" font-size="12">デ</text>
    <text x="180" y="246" class="dim" font-size="12">ジ</text>
    <text x="180" y="256" class="dim" font-size="12">タ</text>
    <text x="180" y="266" class="dim" font-size="12">ル</text>
    <text x="200" y="236" class="d" font-size="16">0864</text>
    <text x="200" y="252" class="t" font-size="5.5">STATE :: ACTIVE</text>
    <rect x="200" y="258" width="8" height="14" class="ln"/>
    <rect x="212" y="262" width="8" height="10" class="ln"/>
    <rect x="224" y="266" width="8" height="6" class="ln"/>
    <text x="278" y="211" text-anchor="end" class="dim" font-size="5">10</text>
  </g>

  <!-- 11 SYSTEM_MAP -->
  <g>
    <rect x="290" y="200" width="250" height="90" fill="#242735" stroke="#3a3e4e"/>
    <text x="298" y="216" class="tt" font-size="8" letter-spacing="2">SYSTEM_MAP // 03</text>
    <line x1="320" y1="260" x2="370" y2="245" class="lnd"/>
    <line x1="320" y1="260" x2="380" y2="280" class="lnd"/>
    <line x1="370" y1="245" x2="430" y2="262" class="lnd"/>
    <line x1="380" y1="280" x2="430" y2="262" class="lnd"/>
    <line x1="430" y1="262" x2="482" y2="246" class="lnd"/>
    <line x1="430" y1="262" x2="500" y2="284" class="lnd"/>
    <circle cx="320" cy="260" r="6" class="ln"/>
    <circle cx="370" cy="245" r="6" class="ln"/>
    <circle cx="380" cy="280" r="6" class="ln"/>
    <circle cx="482" cy="246" r="6" class="ln"/>
    <circle cx="500" cy="284" r="6" class="ln"/>
    <circle cx="430" cy="262" r="9" class="ln"/>
    <circle cx="430" cy="262" r="2.5" class="tt"/>
    <text x="314" y="276" class="dim" font-size="5">RAG</text>
    <text x="362" y="239" class="dim" font-size="5">PIPELINE</text>
    <text x="372" y="294" class="dim" font-size="5">LLM</text>
    <text x="422" y="250" class="dim" font-size="5">CORE</text>
    <text x="476" y="240" class="dim" font-size="5">INTG</text>
    <text x="494" y="296" class="dim" font-size="5">AGENT</text>
    <text x="534" y="211" text-anchor="end" class="dim" font-size="5">11</text>
  </g>

  <!-- 12 CORE_FUNCTION -->
  <g>
    <rect x="546" y="200" width="276" height="90" fill="#242735" stroke="#3a3e4e"/>
    <g class="ln" opacity="0.7" transform="translate(600,245)">
      <ellipse rx="20" ry="8"/>
      <ellipse rx="20" ry="8" transform="rotate(30)"/>
      <ellipse rx="20" ry="8" transform="rotate(60)"/>
      <ellipse rx="20" ry="8" transform="rotate(90)"/>
      <ellipse rx="20" ry="8" transform="rotate(120)"/>
      <ellipse rx="20" ry="8" transform="rotate(150)"/>
      <circle r="4" class="tt"/>
    </g>
    <g class="ln">
      <circle cx="678" cy="245" r="8" stroke-dasharray="2 3"/>
      <circle cx="678" cy="245" r="15" stroke-dasharray="4 5"/>
      <circle cx="678" cy="245" r="22" stroke-dasharray="1 6"/>
    </g>
    <text x="724" y="230" class="tt" font-size="7" letter-spacing="1">(CORE_FUNCTION)</text>
    <text x="724" y="244" class="t" font-size="5.5">PROCESS :: AGENT-01</text>
    <text x="724" y="254" class="dim" font-size="5.5">CYCLE :: 1.07 // SYNC</text>
    <text x="724" y="264" class="dim" font-size="5.5">AUDIO-SIGNAL :: 08</text>
    <text x="814" y="211" text-anchor="end" class="dim" font-size="5">12</text>
  </g>

  <!-- ============ TELEMETRY STRIP ============ -->
  <rect x="8" y="296" width="814" height="18" class="lnd"/>
  <text x="16" y="308" class="dim" font-size="6" letter-spacing="1">→ 0864 // PACIFIC-THEATER // CIVIL-AFFAIRS // MULTI-AGENT // GRAPH-ENGINEERING // TELEMETRY-NOMINAL //</text>
  <circle cy="305" r="2" class="tt">
    <animateMotion path="M822,0 L14,0" dur="9s" repeatCount="indefinite"/>
  </circle>
</svg>